<?xml version="1.0" encoding="UTF-8"?>
<!DOCTYPE svg PUBLIC "-//W3C//DTD SVG 1.1//EN" "http://www.w3.org/Graphics/SVG/1.1/DTD/svg11.dtd">
<svg xmlns="http://www.w3.org/2000/svg" version="1.1" width="48px" height="48px" style="shape-rendering:geometricPrecision; text-rendering:geometricPrecision; image-rendering:optimizeQuality; fill-rule:evenodd; clip-rule:evenodd" xmlns:xlink="http://www.w3.org/1999/xlink">
<g><path style="opacity:1" fill="#275cf3" d="M 31.5,9.5 C 28.7664,12.1426 25.4331,13.1426 21.5,12.5C 21.5,11.5 21.5,10.5 21.5,9.5C 20.1667,9.5 18.8333,9.5 17.5,9.5C 17.2317,6.8806 17.565,4.3806 18.5,2C 22.8706,1.3708 27.204,1.53747 31.5,2.5C 31.5,4.83333 31.5,7.16667 31.5,9.5 Z"/></g>
<g><path style="opacity:1" fill="#2354f8" d="M 47.5,17.5 C 47.5,18.1667 47.5,18.8333 47.5,19.5C 44.5701,20.299 41.5701,20.6323 38.5,20.5C 38.5,19.1667 38.5,17.8333 38.5,16.5C 35.5,15.9072 32.5,15.0739 29.5,14C 32.6507,11.6502 34.3174,8.48356 34.5,4.5C 39.7353,7.30945 42.7353,11.6428 43.5,17.5C 44.8333,17.5 46.1667,17.5 47.5,17.5 Z"/></g>
<g><path style="opacity:1" fill="#47cf5c" d="M 14.5,0.5 C 16.0438,3.24805 16.7105,6.24805 16.5,9.5C 15.1667,9.5 13.8333,9.5 12.5,9.5C 12.7373,10.791 12.404,11.791 11.5,12.5C 8.30229,13.7 4.96895,13.7 1.5,12.5C 4.55371,7.11293 8.88704,3.11293 14.5,0.5 Z"/></g>
<g><path style="opacity:1" fill="#2151f9" d="M 11.5,12.5 C 9.14316,12.6633 6.80982,12.4966 4.5,12C 6.82377,8.00116 10.1571,5.16783 14.5,3.5C 15.4519,5.04533 15.7852,6.71199 15.5,8.5C 14.1667,8.5 12.8333,8.5 11.5,8.5C 11.5,9.83333 11.5,11.1667 11.5,12.5 Z"/></g>
<g><path style="opacity:1" fill="#25e21e" d="M 16.5,-0.5 C 20.8333,-0.5 25.1667,-0.5 29.5,-0.5C 30.9303,0.53747 32.597,1.20414 34.5,1.5C 33.2846,4.15363 32.2846,6.8203 31.5,9.5C 31.5,7.16667 31.5,4.83333 31.5,2.5C 27.204,1.53747 22.8706,1.3708 18.5,2C 17.565,4.3806 17.2317,6.8806 17.5,9.5C 18.8333,9.5 20.1667,9.5 21.5,9.5C 21.5,10.5 21.5,11.5 21.5,12.5C 23.2922,13.3091 25.2922,13.8091 27.5,14C 25.2922,14.1909 23.2922,14.6909 21.5,15.5C 21.5,16.5 21.5,17.5 21.5,18.5C 20.1667,18.5 18.8333,18.5 17.5,18.5C 17.5,20.5 17.5,22.5 17.5,24.5C 15.8333,24.5 14.1667,24.5 12.5,24.5C 11.7321,25.2625 11.2321,26.2625 11,27.5C 10.5065,25.8659 10.3398,24.1992 10.5,22.5C 12.1667,22.5 13.8333,22.5 15.5,22.5C 15.5,21.1667 15.5,19.8333 15.5,18.5C 14.5,18.5 13.5,18.5 12.5,18.5C 12.5,17.1667 12.5,15.8333 12.5,14.5C 8.73072,14.756 5.06405,14.4227 1.5,13.5C 1.5,13.1667 1.5,12.8333 1.5,12.5C 4.96895,13.7 8.30229,13.7 11.5,12.5C 12.404,11.791 12.7373,10.791 12.5,9.5C 13.8333,9.5 15.1667,9.5 16.5,9.5C 16.7105,6.24805 16.0438,3.24805 14.5,0.5C 15.4916,0.67158 16.1583,0.338246 16.5,-0.5 Z"/></g>
<g><path style="opacity:1" fill="#239db1" d="M 19.5,11.5 C 17.8333,11.5 16.1667,11.5 14.5,11.5C 14.5,13.1667 14.5,14.8333 14.5,16.5C 13.5386,14.7354 13.2053,12.7354 13.5,10.5C 15.7354,10.2053 17.7354,10.5386 19.5,11.5 Z"/></g>
<g><path style="opacity:1" fill="#3ece53" d="M 34.5,1.5 C 39.8607,4.86073 44.1941,9.19406 47.5,14.5C 47.5,15.5 47.5,16.5 47.5,17.5C 46.1667,17.5 44.8333,17.5 43.5,17.5C 42.7353,11.6428 39.7353,7.30945 34.5,4.5C 34.3174,8.48356 32.6507,11.6502 29.5,14C 32.5,15.0739 35.5,15.9072 38.5,16.5C 35.2869,16.19 32.2869,16.5233 29.5,17.5C 27.1799,15.7739 24.5133,15.1072 21.5,15.5C 23.2922,14.6909 25.2922,14.1909 27.5,14C 25.2922,13.8091 23.2922,13.3091 21.5,12.5C 25.4331,13.1426 28.7664,12.1426 31.5,9.5C 32.2846,6.8203 33.2846,4.15363 34.5,1.5 Z"/></g>
<g><path style="opacity:1" fill="#56c567" d="M 1.5,13.5 C 5.06405,14.4227 8.73072,14.756 12.5,14.5C 12.5,15.8333 12.5,17.1667 12.5,18.5C 11.596,17.791 11.2627,16.791 11.5,15.5C 8.5,15.5 5.5,15.5 2.5,15.5C 2.4131,19.3317 1.4131,22.665 -0.5,25.5C -0.5,22.5 -0.5,19.5 -0.5,16.5C 0.166667,15.5 0.833333,14.5 1.5,13.5 Z"/></g>
<g><path style="opacity:1" fill="#1c46ff" d="M 19.5,11.5 C 19.5,13.1667 19.5,14.8333 19.5,16.5C 17.8333,16.5 16.1667,16.5 14.5,16.5C 14.5,14.8333 14.5,13.1667 14.5,11.5C 16.1667,11.5 17.8333,11.5 19.5,11.5 Z"/></g>
<g><path style="opacity:1" fill="#1f53fa" d="M 12.5,18.5 C 13.5,18.5 14.5,18.5 15.5,18.5C 15.5,19.8333 15.5,21.1667 15.5,22.5C 13.8333,22.5 12.1667,22.5 10.5,22.5C 10.4074,27.1899 8.40741,30.8566 4.5,33.5C 3.71317,32.7579 3.04651,31.9246 2.5,31C 3.69403,28.3422 2.69403,27.1756 -0.5,27.5C -0.5,26.8333 -0.5,26.1667 -0.5,25.5C 1.4131,22.665 2.4131,19.3317 2.5,15.5C 5.5,15.5 8.5,15.5 11.5,15.5C 11.2627,16.791 11.596,17.791 12.5,18.5 Z"/></g>
<g><path style="opacity:1" fill="#2258f6" d="M 21.5,15.5 C 24.5133,15.1072 27.1799,15.7739 29.5,17.5C 29.5,20.1667 29.5,22.8333 29.5,25.5C 30.8333,25.5 32.1667,25.5 33.5,25.5C 33.8333,31.1667 31.1667,33.8333 25.5,33.5C 25.5,31.8333 25.5,30.1667 25.5,28.5C 22.1667,28.5 18.8333,28.5 15.5,28.5C 15.741,31.999 14.9076,32.3323 13,29.5C 12.5065,27.8659 12.3398,26.1992 12.5,24.5C 14.1667,24.5 15.8333,24.5 17.5,24.5C 17.5,22.5 17.5,20.5 17.5,18.5C 18.8333,18.5 20.1667,18.5 21.5,18.5C 21.5,17.5 21.5,16.5 21.5,15.5 Z"/></g>
<g><path style="opacity:1" fill="#30e028" d="M 38.5,16.5 C 38.5,17.8333 38.5,19.1667 38.5,20.5C 41.5701,20.6323 44.5701,20.299 47.5,19.5C 47.5,22.8333 47.5,26.1667 47.5,29.5C 44.5,38.5 38.5,44.5 29.5,47.5C 25.5,47.5 21.5,47.5 17.5,47.5C 14.8987,46.1993 12.232,44.866 9.5,43.5C 9.32842,42.5084 9.66175,41.8417 10.5,41.5C 18.6867,46.6505 27.02,46.8172 35.5,42C 36.8228,41.1841 37.4894,40.0174 37.5,38.5C 37.5,37.8333 37.8333,37.5 38.5,37.5C 41.4521,36.6411 43.2854,34.6411 44,31.5C 45.1488,28.6074 45.6488,25.6074 45.5,22.5C 42.6122,21.9898 40.2789,22.6565 38.5,24.5C 37.8333,22.1667 37.1667,19.8333 36.5,17.5C 34.8333,17.5 33.1667,17.5 31.5,17.5C 30.5318,19.6074 30.1984,21.9407 30.5,24.5C 31.791,24.2627 32.791,24.596 33.5,25.5C 32.1667,25.5 30.8333,25.5 29.5,25.5C 29.5,22.8333 29.5,20.1667 29.5,17.5C 32.2869,16.5233 35.2869,16.19 38.5,16.5 Z"/></g>
<g><path style="opacity:1" fill="#2155f7" d="M 38.5,37.5 C 37.0401,35.5372 35.3734,33.7038 33.5,32C 35.229,30.2111 35.8957,28.0444 35.5,25.5C 36.791,25.7373 37.791,25.404 38.5,24.5C 40.2789,22.6565 42.6122,21.9898 45.5,22.5C 45.6488,25.6074 45.1488,28.6074 44,31.5C 43.2854,34.6411 41.4521,36.6411 38.5,37.5 Z"/></g>
<g><path style="opacity:1" fill="#2457f7" d="M 37.5,38.5 C 37.4894,40.0174 36.8228,41.1841 35.5,42C 27.02,46.8172 18.6867,46.6505 10.5,41.5C 8.35904,40.1882 6.69237,38.3549 5.5,36C 7.32111,34.2567 9.32111,32.7567 11.5,31.5C 14.0715,32.7277 15.4048,34.7277 15.5,37.5C 21.5079,38.0047 27.1746,37.0047 32.5,34.5C 34.1856,35.8569 35.8523,37.1902 37.5,38.5 Z"/></g>
<g><path style="opacity:1" fill="#3bd248" d="M 31.5,17.5 C 31.5,19.5 31.5,21.5 31.5,23.5C 33.1667,23.5 34.8333,23.5 36.5,23.5C 36.5,21.5 36.5,19.5 36.5,17.5C 37.1667,19.8333 37.8333,22.1667 38.5,24.5C 37.791,25.404 36.791,25.7373 35.5,25.5C 35.8957,28.0444 35.229,30.2111 33.5,32C 35.3734,33.7038 37.0401,35.5372 38.5,37.5C 37.8333,37.5 37.5,37.8333 37.5,38.5C 35.8523,37.1902 34.1856,35.8569 32.5,34.5C 27.1746,37.0047 21.5079,38.0047 15.5,37.5C 15.4048,34.7277 14.0715,32.7277 11.5,31.5C 9.32111,32.7567 7.32111,34.2567 5.5,36C 6.69237,38.3549 8.35904,40.1882 10.5,41.5C 9.66175,41.8417 9.32842,42.5084 9.5,43.5C 4.95559,40.068 1.62226,35.7347 -0.5,30.5C -0.5,29.5 -0.5,28.5 -0.5,27.5C 2.69403,27.1756 3.69403,28.3422 2.5,31C 3.04651,31.9246 3.71317,32.7579 4.5,33.5C 8.40741,30.8566 10.4074,27.1899 10.5,22.5C 10.3398,24.1992 10.5065,25.8659 11,27.5C 11.2321,26.2625 11.7321,25.2625 12.5,24.5C 12.3398,26.1992 12.5065,27.8659 13,29.5C 14.9076,32.3323 15.741,31.999 15.5,28.5C 18.8333,28.5 22.1667,28.5 25.5,28.5C 25.5,30.1667 25.5,31.8333 25.5,33.5C 31.1667,33.8333 33.8333,31.1667 33.5,25.5C 32.791,24.596 31.791,24.2627 30.5,24.5C 30.1984,21.9407 30.5318,19.6074 31.5,17.5 Z"/></g>
<g><path style="opacity:1" fill="#1e4cfa" d="M 17.5,30.5 C 19.5,30.5 21.5,30.5 23.5,30.5C 23.5,32.1667 23.5,33.8333 23.5,35.5C 21.5,35.5 19.5,35.5 17.5,35.5C 17.5,33.8333 17.5,32.1667 17.5,30.5 Z"/></g>
<g><path style="opacity:1" fill="#1f4cfa" d="M 31.5,17.5 C 33.1667,17.5 34.8333,17.5 36.5,17.5C 36.5,19.5 36.5,21.5 36.5,23.5C 34.8333,23.5 33.1667,23.5 31.5,23.5C 31.5,21.5 31.5,19.5 31.5,17.5 Z"/></g>
</svg>
